<svg width="28" height="28" viewBox="0 0 28 28" fill="none" xmlns="http://www.w3.org/2000/svg">
<mask id="path-1-inside-1_15_38" fill="white">
<path d="M27.713 16.8204C27.1372 19.6199 25.7184 22.1761 23.6472 24.1455C21.5761 26.1149 18.9517 27.4033 16.1269 27.8375C13.302 28.2717 10.4119 27.8309 7.8449 26.5744C5.27789 25.3178 3.15695 23.3057 1.76703 20.8084C0.377121 18.3111 -0.215171 15.4482 0.0697337 12.6044C0.354639 9.7606 1.50309 7.07211 3.36079 4.90015C5.21849 2.7282 7.69643 1.17684 10.4617 0.454506C13.227 -0.267825 16.1471 -0.126521 18.8296 0.859433L17.8159 3.61767C15.6964 2.83867 13.3892 2.72703 11.2044 3.29774C9.01957 3.86845 7.06175 5.09418 5.59399 6.81023C4.12622 8.52629 3.21883 10.6505 2.99373 12.8973C2.76863 15.1442 3.2366 17.4062 4.33476 19.3793C5.43293 21.3524 7.10868 22.9422 9.13687 23.935C11.1651 24.9278 13.4485 25.276 15.6804 24.933C17.9124 24.5899 19.9858 23.572 21.6222 22.0159C23.2587 20.4599 24.3796 18.4403 24.8346 16.2284L27.713 16.8204Z"/>
</mask>
<path d="M27.713 16.8204C27.1372 19.6199 25.7184 22.1761 23.6472 24.1455C21.5761 26.1149 18.9517 27.4033 16.1269 27.8375C13.302 28.2717 10.4119 27.8309 7.8449 26.5744C5.27789 25.3178 3.15695 23.3057 1.76703 20.8084C0.377121 18.3111 -0.215171 15.4482 0.0697337 12.6044C0.354639 9.7606 1.50309 7.07211 3.36079 4.90015C5.21849 2.7282 7.69643 1.17684 10.4617 0.454506C13.227 -0.267825 16.1471 -0.126521 18.8296 0.859433L17.8159 3.61767C15.6964 2.83867 13.3892 2.72703 11.2044 3.29774C9.01957 3.86845 7.06175 5.09418 5.59399 6.81023C4.12622 8.52629 3.21883 10.6505 2.99373 12.8973C2.76863 15.1442 3.2366 17.4062 4.33476 19.3793C5.43293 21.3524 7.10868 22.9422 9.13687 23.935C11.1651 24.9278 13.4485 25.276 15.6804 24.933C17.9124 24.5899 19.9858 23.572 21.6222 22.0159C23.2587 20.4599 24.3796 18.4403 24.8346 16.2284L27.713 16.8204Z" stroke="white" stroke-width="6" mask="url(#path-1-inside-1_15_38)"/>
</svg>
